# xmcd
#
# Track frame offsets:
#	177
#	17117
#	46820
#	59362
#	83550
#	93237
#	106512
#	124550
#	147310
#	175967
#	192305
#	208267
#	225477
#	245627
#	288332
#
# Disc length: 4200 seconds
#
# Revision: 1
# Processed by: cddbd v1.4PL0 Copyright (c) Steve Scherf et al.
# Submitted via: audiograbber 1.81.03
#
DISCID=c710660f
DTITLE=Various Artist - West Coast Wailers (Harmonica Blues Vol 1)
DYEAR=1996
DGENRE=Blues
TTITLE0=Mick Martin - Baby's Coming Home For Christmas
TTITLE1=Mick Martin - Pick Up Baby
TTITLE2=Mick Martin - Mick Jumps In
TTITLE3=Dave Wellhausen - Just Keep Loving Her
TTITLE4=Dave Wellhausen - Powder Keg
TTITLE5=Dave Wellhausen - Ready Willin' and Able
TTITLE6=Chris 'Hammer' Smith - Don't Ask Questions
TTITLE7=Chris 'Hammer' Smith - Hideaway
TTITLE8=Chris 'Hammer' Smith - I'm The One
TTITLE9=Doug Jay - The Last Time
TTITLE10=Doug Jay - Harmania
TTITLE11=Doug Jay - Paralysed
TTITLE12=Stan Ruffo - Honey Dos
TTITLE13=Stan Ruffo - Don't Let The Blues Overtake You
TTITLE14=Stan Ruffo - Potbellied Pig
EXTD=
EXTT0=
EXTT1=
EXTT2=
EXTT3=
EXTT4=
EXTT5=
EXTT6=
EXTT7=
EXTT8=
EXTT9=
EXTT10=
EXTT11=
EXTT12=
EXTT13=
EXTT14=
PLAYORDER=
